<svg width="29" height="10" viewBox="0 0 29 10" fill="none" xmlns="http://www.w3.org/2000/svg">
<path d="M6.52734 6.39844C6.52734 6.86328 6.41016 7.30469 6.17578 7.72266C5.94141 8.13672 5.57617 8.47266 5.08008 8.73047C4.58789 8.98828 3.95117 9.11719 3.16992 9.11719C2.7793 9.11719 2.43555 9.09961 2.13867 9.06445C1.8457 9.0293 1.57227 8.97266 1.31836 8.89453C1.06445 8.8125 0.800781 8.70703 0.527344 8.57812V6.51562C0.992188 6.75 1.46094 6.92969 1.93359 7.05469C2.40625 7.17578 2.83398 7.23633 3.2168 7.23633C3.44727 7.23633 3.63477 7.20898 3.7793 7.1543C3.92773 7.09961 4.03711 7.02539 4.10742 6.93164C4.17773 6.83398 4.21289 6.72266 4.21289 6.59766C4.21289 6.44922 4.16016 6.32422 4.05469 6.22266C3.95312 6.11719 3.78906 6.00781 3.5625 5.89453C3.33594 5.78125 3.03711 5.64062 2.66602 5.47266C2.34961 5.32422 2.0625 5.17188 1.80469 5.01562C1.55078 4.85938 1.33203 4.68164 1.14844 4.48242C0.96875 4.2793 0.830078 4.04297 0.732422 3.77344C0.634766 3.50391 0.585938 3.18555 0.585938 2.81836C0.585938 2.26758 0.720703 1.80664 0.990234 1.43555C1.26367 1.06055 1.64258 0.779297 2.12695 0.591797C2.61523 0.404297 3.17773 0.310547 3.81445 0.310547C4.37305 0.310547 4.875 0.373047 5.32031 0.498047C5.76953 0.623047 6.17188 0.765625 6.52734 0.925781L5.81836 2.71289C5.45117 2.54492 5.08984 2.41211 4.73438 2.31445C4.37891 2.21289 4.04883 2.16211 3.74414 2.16211C3.54492 2.16211 3.38086 2.1875 3.25195 2.23828C3.12695 2.28516 3.0332 2.34961 2.9707 2.43164C2.91211 2.51367 2.88281 2.60742 2.88281 2.71289C2.88281 2.8457 2.93359 2.96484 3.03516 3.07031C3.14062 3.17578 3.31445 3.29102 3.55664 3.41602C3.80273 3.53711 4.13672 3.69531 4.55859 3.89062C4.97656 4.07812 5.33203 4.28125 5.625 4.5C5.91797 4.71484 6.14062 4.97461 6.29297 5.2793C6.44922 5.58008 6.52734 5.95312 6.52734 6.39844ZM11.6309 9H9.31641V2.32617H7.22461V0.433594H13.7168V2.32617H11.6309V9ZM22.3418 0.433594L19.5352 9H16.8105L14.0156 0.433594H16.6172L17.7832 4.77539C17.8262 4.93945 17.875 5.15039 17.9297 5.4082C17.9883 5.66211 18.041 5.91602 18.0879 6.16992C18.1387 6.42383 18.1699 6.63086 18.1816 6.79102C18.1973 6.63086 18.2266 6.42578 18.2695 6.17578C18.3125 5.92578 18.3594 5.67578 18.4102 5.42578C18.4648 5.17188 18.5156 4.96289 18.5625 4.79883L19.752 0.433594H22.3418ZM28.875 6.39844C28.875 6.86328 28.7578 7.30469 28.5234 7.72266C28.2891 8.13672 27.9238 8.47266 27.4277 8.73047C26.9355 8.98828 26.2988 9.11719 25.5176 9.11719C25.127 9.11719 24.7832 9.09961 24.4863 9.06445C24.1934 9.0293 23.9199 8.97266 23.666 8.89453C23.4121 8.8125 23.1484 8.70703 22.875 8.57812V6.51562C23.3398 6.75 23.8086 6.92969 24.2812 7.05469C24.7539 7.17578 25.1816 7.23633 25.5645 7.23633C25.7949 7.23633 25.9824 7.20898 26.127 7.1543C26.2754 7.09961 26.3848 7.02539 26.4551 6.93164C26.5254 6.83398 26.5605 6.72266 26.5605 6.59766C26.5605 6.44922 26.5078 6.32422 26.4023 6.22266C26.3008 6.11719 26.1367 6.00781 25.9102 5.89453C25.6836 5.78125 25.3848 5.64062 25.0137 5.47266C24.6973 5.32422 24.4102 5.17188 24.1523 5.01562C23.8984 4.85938 23.6797 4.68164 23.4961 4.48242C23.3164 4.2793 23.1777 4.04297 23.0801 3.77344C22.9824 3.50391 22.9336 3.18555 22.9336 2.81836C22.9336 2.26758 23.0684 1.80664 23.3379 1.43555C23.6113 1.06055 23.9902 0.779297 24.4746 0.591797C24.9629 0.404297 25.5254 0.310547 26.1621 0.310547C26.7207 0.310547 27.2227 0.373047 27.668 0.498047C28.1172 0.623047 28.5195 0.765625 28.875 0.925781L28.166 2.71289C27.7988 2.54492 27.4375 2.41211 27.082 2.31445C26.7266 2.21289 26.3965 2.16211 26.0918 2.16211C25.8926 2.16211 25.7285 2.1875 25.5996 2.23828C25.4746 2.28516 25.3809 2.34961 25.3184 2.43164C25.2598 2.51367 25.2305 2.60742 25.2305 2.71289C25.2305 2.8457 25.2812 2.96484 25.3828 3.07031C25.4883 3.17578 25.6621 3.29102 25.9043 3.41602C26.1504 3.53711 26.4844 3.69531 26.9062 3.89062C27.3242 4.07812 27.6797 4.28125 27.9727 4.5C28.2656 4.71484 28.4883 4.97461 28.6406 5.2793C28.7969 5.58008 28.875 5.95312 28.875 6.39844Z" fill="black"/>
</svg>
